<?xml version="1.0" encoding="UTF-8" standalone="no"?>
<svg
   height="256"
   viewBox="0 0 256 256"
   width="256"
   version="1.1"
   id="svg4"
   sodipodi:docname="angle_line_to_line.svg"
   inkscape:version="1.4.2 (f4327f4, 2025-05-13)"
   xmlns:inkscape="http://www.inkscape.org/namespaces/inkscape"
   xmlns:sodipodi="http://sodipodi.sourceforge.net/DTD/sodipodi-0.dtd"
   xmlns="http://www.w3.org/2000/svg"
   xmlns:svg="http://www.w3.org/2000/svg">
  <defs
     id="defs4" />
  <sodipodi:namedview
     id="namedview4"
     pagecolor="#ffffff"
     bordercolor="#000000"
     borderopacity="0.25"
     inkscape:showpageshadow="2"
     inkscape:pageopacity="0.0"
     inkscape:pagecheckerboard="0"
     inkscape:deskcolor="#d1d1d1"
     inkscape:zoom="3.3398438"
     inkscape:cx="128"
     inkscape:cy="128"
     inkscape:window-width="1920"
     inkscape:window-height="1057"
     inkscape:window-x="-8"
     inkscape:window-y="-8"
     inkscape:window-maximized="1"
     inkscape:current-layer="g4" />
  <g
     stroke="#000"
     id="g4"
     style="stroke:#ffffff;stroke-opacity:1">
    <g
       stroke-width="8"
       id="g3"
       style="stroke:#ffffff;stroke-opacity:1">
      <g
         fill="none"
         stroke-dashoffset="8"
         id="g2"
         style="stroke:#ffffff;stroke-opacity:1">
        <path
           d="m16 188h224"
           id="path1"
           style="stroke:#ffffff;stroke-opacity:1" />
        <path
           d="m24 224 168-168"
           id="path2"
           style="stroke:#ffffff;stroke-opacity:1" />
      </g>
      <circle
         cx="60"
         cy="188.00002"
         fill="#00ff7f"
         opacity=".98"
         r="24"
         stroke-dashoffset="6"
         stroke-linejoin="bevel"
         id="circle2"
         style="stroke:#ffffff;stroke-opacity:1" />
    </g>
    <text
       fill="#000"
       font-family="Cordia New"
       font-size="121.510902"
       letter-spacing="0"
       transform="matrix(1.0132811 0 0 .98689297 0 0)"
       word-spacing="0"
       x="44.864639"
       y="123.43602"
       id="text3"
       style="stroke:#ffffff;stroke-opacity:1;fill:#ffffff;fill-opacity:1"><tspan
         x="44.864639"
         y="123.43602"
         id="tspan3"
         style="stroke:#ffffff;stroke-opacity:1;fill:#ffffff;fill-opacity:1">?</tspan></text>
    <path
       d="m162.09168 162.74629q5.04 0 8.48-4 3.12-3.6 3.68-8.88.24-2.24.24-3.92 0-18.08-18.72-17.92-5.44.08-8.4 6.88-2.24 5.2-2.24 11.52 0 8.16 6 12.64 4.96 3.68 10.96 3.68zm17.28 7.44q-.48-1.92-1.04-7.36-.16-1.12-.64-5.92-4.72 5.84-11.6 9.52-7.44 4-14.48 4-8.64 0-13.44-6.56-4.32-5.84-4.32-14.72 0-9.84 6.56-16.48 4.88-4.96 15.52-9.52 3.36-1.44 7.44-1.44 8.96 0 14.16 6.4.64-2.32 1.6-4.16.88.24 2 .24 4.8 0 11.84-2.96-4.8 3.76-4.8 19.04 0 2.56.16 7.68.24 5.12.24 7.68 0 5.52.96 8.24 1.6 4.56 6.08 6.08z"
       fill="#000"
       transform="matrix(1.0132811 0 0 .98689297 0 0)"
       id="path3"
       style="stroke:#ffffff;stroke-opacity:1;fill:#ffffff;fill-opacity:1" />
    <path
       d="m151.77223 56.935671a160 160 0 0 1 65.79701 158.848039"
       fill="none"
       stroke-dashoffset="8"
       stroke-linecap="square"
       stroke-width="7.999999"
       id="path4"
       style="stroke:#ffffff;stroke-opacity:1" />
  </g>
</svg>
