<?xml version="1.0" encoding="UTF-8" standalone="no"?>
<svg
   height="256"
   viewBox="0 0 72.248892 72.248892"
   width="256"
   version="1.1"
   id="svg12"
   sodipodi:docname="grid_iso_top.svg"
   inkscape:version="1.4.2 (f4327f4, 2025-05-13)"
   xmlns:inkscape="http://www.inkscape.org/namespaces/inkscape"
   xmlns:sodipodi="http://sodipodi.sourceforge.net/DTD/sodipodi-0.dtd"
   xmlns="http://www.w3.org/2000/svg"
   xmlns:svg="http://www.w3.org/2000/svg">
  <defs
     id="defs12" />
  <sodipodi:namedview
     id="namedview12"
     pagecolor="#ffffff"
     bordercolor="#000000"
     borderopacity="0.25"
     inkscape:showpageshadow="2"
     inkscape:pageopacity="0.0"
     inkscape:pagecheckerboard="0"
     inkscape:deskcolor="#d1d1d1"
     inkscape:zoom="3.3398438"
     inkscape:cx="127.85029"
     inkscape:cy="128"
     inkscape:window-width="1920"
     inkscape:window-height="1057"
     inkscape:window-x="-8"
     inkscape:window-y="-8"
     inkscape:window-maximized="1"
     inkscape:current-layer="svg12" />
  <g
     fill="none"
     stroke="#000"
     stroke-width="2.25778"
     id="g4"
     style="stroke:#ffffff;stroke-opacity:1">
    <path
       d="m46.74698 12.657626-39.641161 28.100411"
       id="path1"
       style="stroke:#ffffff;stroke-opacity:1" />
    <path
       d="m69.248628 28.182237-39.641161 28.100412"
       id="path2"
       style="stroke:#ffffff;stroke-opacity:1" />
    <path
       d="m29.185991 12.740761 40.181515 27.722522"
       id="path3"
       style="stroke:#ffffff;stroke-opacity:1" />
    <path
       d="m6.9869413 28.476992 40.1815147 27.722521"
       id="path4"
       style="stroke:#ffffff;stroke-opacity:1" />
  </g>
  <g
     fill="#00ff7f"
     id="g10">
    <path
       d="m47.651218 27.502046-20.049436-13.832752.745404-.528394.745405-.528395 20.049436 13.832752 20.049438 13.832753-.745405.528394-.745404.528394z"
       id="path5" />
    <path
       d="m38.058437 34.383818-20.049436-13.832751.745404-.528395.745405-.528394 20.049436 13.832752 20.049438 13.832753-.745404.528394-.745405.528395z"
       id="path6" />
    <path
       d="m25.632339 43.1923-20.0494354-13.832752.7454044-.528394.7454043-.528395 20.0494357 13.832753 20.049439 13.832753-.745405.528394-.745404.528395z"
       id="path7" />
    <path
       d="m28.797002 55.742741-.755564-.521288 19.779815-14.021308 19.779817-14.02131.755564.521288.755565.521289-19.779817 14.021309-19.779815 14.021309z"
       id="path8" />
    <path
       d="m17.46462 47.843521-.755564-.521289 19.779815-14.021307 19.779817-14.021311.755564.521289.755565.521288-19.779817 14.02131-19.779815 14.021308z"
       id="path9" />
    <path
       d="m6.4187473 40.303262-.7555644-.521288 19.7798151-14.021308 19.779817-14.02131.755564.521288.755565.521289-19.779817 14.021309-19.7798153 14.021309z"
       id="path10" />
  </g>
  <g
     fill="none"
     stroke="#000"
     stroke-width="2.25778"
     id="g12"
     style="stroke:#ffffff;stroke-opacity:1">
    <path
       d="m18.086467 20.608877 40.181514 27.722521"
       id="path11"
       style="stroke:#ffffff;stroke-opacity:1" />
    <path
       d="m57.997804 20.419932-39.641161 28.100411"
       id="path12"
       style="stroke:#ffffff;stroke-opacity:1" />
  </g>
</svg>
